<svg width="256" height="256" fill="none" xmlns="http://www.w3.org/2000/svg"><g clip-path="url(#clip0)"><path fill-rule="evenodd" clip-rule="evenodd" d="M256 127.4C256 57.1 198.63.02 128 .02S0 57.1 0 127.39s57.37 127.37 128 127.37 128-57.1 128-127.37z" fill="url(#paint0_linear)"/><path fill-rule="evenodd" clip-rule="evenodd" d="M153.2 185.66c16.97 6.2 32.28 8.8 44.96 10.58 12.68 1.77 22.72 2.72 27.98 3.45 5.26.74 5.73 1.27 5.5 1.83-.24.56-1.17 1.15-3.6 1.87-2.42.72-6.35 1.58-14.19 5.89-7.84 4.3-19.6 12.08-31.27 18.23-11.67 6.16-23.23 10.7-36.87 14.56-13.63 3.88-29.33 7.08-43.8 6.5-14.47-.6-27.72-4.97-39.87-12.2-12.16-7.21-23.22-17.27-29.2-29.46-5.97-12.2-6.86-26.53-5.25-36.79 1.61-10.26 5.72-16.46 12.17-20.35 6.45-3.88 15.23-5.45 25.48-3.39 10.25 2.07 21.97 7.77 37.15 15.52s33.83 17.56 50.8 23.76z" fill="#00F8FF" fill-opacity=".4"/><path opacity=".7" fill-rule="evenodd" clip-rule="evenodd" d="M178.33 212.49c11.9 3.97 23.73 7.84 26.1 12.12 2.36 4.28-4.75 8.96-14.34 14.05-9.58 5.09-21.64 10.58-36.78 13.57-15.14 3-33.35 3.47-50.15 0-16.8-3.46-32.17-10.88-41.02-18.45-8.86-7.56-11.2-15.29-11.15-23.07.04-7.79 2.45-15.64 8.81-20.7 6.37-5.08 16.68-7.37 31.12-5.18 14.44 2.2 33.01 8.87 48.28 14.24 15.27 5.37 27.23 9.44 39.13 13.42z" fill="#053FBE"/><path fill-rule="evenodd" clip-rule="evenodd" d="M148.7 220.81c15 4.95 31.22 11.56 32.13 17.5.91 5.94-13.48 11.2-28.61 14.08-15.14 2.88-31.02 3.38-44.5-.14-13.48-3.53-24.55-11.07-29.1-19.01-4.53-7.94-2.53-16.28 3.14-20.33 5.67-4.06 15.01-3.83 26.58-2.08 11.57 1.75 25.36 5.04 40.36 9.98z" fill="#001EC3"/><path fill-rule="evenodd" clip-rule="evenodd" d="M117.59 228.28c-8.16-.34-14.37 2.27-16.1 6.04-1.72 3.77 1.03 8.71 6.68 12.01 5.65 3.3 14.19 4.96 23.14 4.87 8.95-.1 18.31-1.96 20.82-4.91 2.51-2.96-1.83-7.02-9.06-10.7-7.22-3.67-17.33-6.97-25.48-7.3z" fill="#000086"/><path opacity=".8" fill-rule="evenodd" clip-rule="evenodd" d="M119.2 243.67c15.22-2 30.72-7.32 47.87-17.41S203 201.32 216 185.66c13-15.64 20.18-32.09 24.76-47.4 4.58-15.33 6.55-29.52 5-44.02-1.56-14.5-6.65-29.3-14.89-40.99-8.24-11.69-19.63-20.26-33.49-25.6-13.85-5.35-30.16-7.47-46.91-5.2-16.75 2.28-33.94 8.95-50.5 18.9a187.98 187.98 0 00-46 38.98c-13.5 15.85-24.57 34.35-29.74 54.05-5.18 19.7-4.47 40.6-.44 56.02 4.03 15.42 11.38 25.35 20.33 33.21 8.94 7.86 19.48 13.66 32.21 17.2a108.75 108.75 0 0042.88 2.86z" fill="url(#paint1_linear)"/><path fill-rule="evenodd" clip-rule="evenodd" d="M108.45 88.9c18.72 9.22 38.18 21.2 52.4 34.31 14.2 13.11 23.15 27.36 25.24 41.19 2.1 13.82-2.65 27.22-11.45 38.42-8.81 11.2-21.67 20.2-33.87 26.08a93.77 93.77 0 01-35.96 9.4c-12.26.77-25.25-.45-36.8-3.64-11.56-3.2-21.67-8.37-29.88-15.85-8.22-7.49-14.53-17.27-18.98-28.42-4.45-11.15-7.03-23.67-8.77-36.87a381.24 381.24 0 01-2.94-40.21c-.3-13.13-.02-25.51 3.5-33.32 3.52-7.8 10.28-11.05 17.96-12.49 7.68-1.44 16.28-1.08 29.57 2.33s31.26 9.86 49.98 19.08z" fill="#1CEFFF" fill-opacity=".6"/><g style="mix-blend-mode:multiply"><path fill-rule="evenodd" clip-rule="evenodd" d="M140.94 90.47c23.2 12.17 47.64 26 66.18 41.15 18.54 15.14 31.18 31.58 34.64 42.62 3.45 11.03-2.29 16.66-13.28 18.01-11 1.36-27.24-1.56-46.25-7.88-19-6.31-40.76-16.02-60.55-26.35a465.94 465.94 0 01-52.26-31.64c-14.66-10.33-26.16-20.06-34.31-28.14-8.15-8.07-12.96-14.5-15.54-21.87-2.58-7.38-2.93-15.71 6.48-19.05 9.4-3.34 28.58-1.68 49.15 4.4s42.54 16.58 65.74 28.75z" fill="#94FF63" fill-opacity=".6"/></g><path fill-rule="evenodd" clip-rule="evenodd" d="M126.86 149.96a241.97 241.97 0 0044.88 21.6c17.28 6.15 36.48 10.49 50.62 10.64 14.15.15 23.87-3.84 28.45-19.14 4.57-15.3 7.1-36.3 3.31-57.67-3.78-21.36-14.5-43.13-24.85-54.26-10.34-11.14-23.39-17.25-38.22-20.41a107.32 107.32 0 00-47.44.57c-15.98 3.93-31.3 11.99-42.87 22.5-11.56 10.5-19.36 23.45-19.45 36.29-.09 12.83 7.53 25.55 15.88 35.44 8.36 9.88 17.46 16.93 29.7 24.44z" fill="url(#paint2_linear)"/><path fill-rule="evenodd" clip-rule="evenodd" d="M3.72 107c2.45-7.56 6.63-14.08 14.2-16.72 7.55-2.63 18.49-1.38 29.87 1.3a131.55 131.55 0 0136.3 14.34c13.1 7.52 27.47 18.44 37.55 30.15 10.07 11.7 15.86 24.2 16.84 36.28a47.19 47.19 0 01-9.71 32.63c-6.9 8.88-16.88 14.98-27.43 18.47a70.64 70.64 0 01-33.06 2.65c-11.36-1.72-22.95-6.05-32.1-12.63-9.15-6.58-15.86-15.4-20.78-24.46-4.92-9.06-8.05-18.36-10.35-27.95a150.84 150.84 0 01-4.14-28.7c-.37-9.23.36-17.82 2.81-25.37z" fill="url(#paint3_linear)"/><path fill-rule="evenodd" clip-rule="evenodd" d="M61.62 208c7.63.23 15.6-.77 22.06-4.32 6.46-3.54 11.4-9.63 14.09-17.16 2.7-7.54 3.14-16.51.08-25.62-3.06-9.12-9.63-18.36-18.9-25.78-9.26-7.42-21.21-13.01-30.97-16.85-9.76-3.85-17.32-5.95-24.27-4.45a24.07 24.07 0 00-16.37 13.27c-3.08 6.7-2.9 15-1.9 22.56a75.7 75.7 0 005.73 20.9 74.85 74.85 0 0011.71 18.54c4.89 5.69 10.7 10.74 17.27 13.99 6.55 3.25 13.84 4.7 21.47 4.92z" fill="url(#paint4_linear)"/><path fill-rule="evenodd" clip-rule="evenodd" d="M58.34 153.21c5.87 7.09 8.49 16 7.25 22.38-1.23 6.37-6.33 10.2-12.85 10.81-6.51.62-14.44-1.97-20.5-6.44a36.4 36.4 0 01-12.53-17.28c-2.25-6.45-2.53-13.02.23-17.55 2.75-4.53 8.55-7.02 16-5.64 7.44 1.38 16.54 6.64 22.4 13.72z" fill="#0A0FCA" fill-opacity=".8"/><path fill-rule="evenodd" clip-rule="evenodd" d="M187 133.83c11.68 4.56 25.98 6.59 35.95 4.24 9.97-2.35 15.61-9.07 17.8-17.38 2.2-8.31.95-18.22-3.5-28.07-4.43-9.86-12.05-19.66-22.44-25.64-10.38-5.98-23.52-8.13-34.4-7.06-10.88 1.08-19.5 5.38-24.65 11.4-5.16 6.02-6.86 13.75-6.05 21.32.81 7.58 4.13 15 10.33 22.26a68.18 68.18 0 0026.95 18.93z" fill="#FF6D00" fill-opacity=".86"/><path fill-rule="evenodd" clip-rule="evenodd" d="M171.67 149.86c14.02 6.3 29.17 10.92 41.9 11.5 12.72.57 23-2.9 29.72-10.14 6.71-7.24 9.86-18.26 9.67-32.67-.2-14.42-3.74-32.22-14.34-46.53-10.59-14.31-28.23-25.13-46.56-28.52-18.33-3.4-37.34.62-50.83 8.97-13.5 8.34-21.47 21.01-22.1 34.25-.63 13.24 6.08 27.05 15.87 37.95 9.8 10.9 22.66 18.89 36.67 25.2z" fill="#FFFD00" fill-opacity=".75"/><path fill-rule="evenodd" clip-rule="evenodd" d="M153.63 81.42c14.82 7.04 29.92 14.45 42.9 18.5 12.99 4.05 23.85 4.74 30.88.68 7.02-4.06 10.21-12.85 10.56-21.29.34-8.44-2.16-16.51-7.16-25.18A69.43 69.43 0 00206.46 29c-11.84-7.19-28-12.3-44.59-12.99-16.57-.67-33.56 3.1-47.4 7.82-13.83 4.72-24.52 10.4-33.9 15.63-9.39 5.23-17.47 10.03-25.83 12.89-8.37 2.86-17.03 3.77-22.14 3.02-5.1-.74-6.65-3.16-5.81-5.23.84-2.07 4.09-3.8 10.7-4.51 6.6-.72 16.57-.42 29.17 2.32 12.6 2.75 27.84 7.93 42.73 13.86 14.89 5.92 29.42 12.57 44.24 19.6z" fill="url(#paint5_radial)"/><path fill-rule="evenodd" clip-rule="evenodd" d="M134.67 47.71c16.64 5.37 33.47 10 47.61 11.74 14.15 1.72 25.6.54 30.36-4.72 4.76-5.27 2.8-14.6-4.04-23.22s-18.59-16.53-32.25-20.82C162.7 6.4 147.11 5.72 133.8 6.62c-13.32.9-24.36 3.37-34.63 6.45-10.27 3.08-19.77 6.76-27.82 9.1-8.06 2.35-14.67 3.35-18.2 3.99-3.54.63-4 .89-3.43.96.56.07 2.14-.05 8.22.43 6.07.47 16.64 1.53 30.15 5.11 13.5 3.59 29.94 9.68 46.58 15.05z" fill="url(#paint6_linear)"/><path fill-rule="evenodd" clip-rule="evenodd" d="M109.64 20.99c9.4 2.33 18.16 5.11 27.75 7.1 9.59 1.98 20.01 3.15 28.72 3.07 8.7-.08 15.67-1.43 18.2-4.96 2.5-3.53.56-9.24-4.9-13.63-5.46-4.38-14.45-7.44-23.36-9.53C147.15.94 138.33-.2 128.5.03c-9.83.2-20.66 1.76-29.08 3.61A137.42 137.42 0 0080.7 9.18c-4.26 1.55-6.77 2.52-7.51 3.27-.74.75.28 1.27 1.74 1.65 1.45.37 3.33.6 9.29 1.65a397.5 397.5 0 0125.42 5.24z" fill="url(#paint7_linear)"/><path fill-rule="evenodd" clip-rule="evenodd" d="M135.3 13.7c6.66.07 13.38-.7 17.42-1.96 4.03-1.25 5.37-2.98 3.92-4.84-1.45-1.87-5.69-3.87-11-5.1C140.34.57 133.96.11 127.68.13c-6.27.02-12.44.53-16.87 1.53-4.42 1-7.1 2.49-6.04 4.25 1.06 1.77 5.86 3.8 11.56 5.28a80.47 80.47 0 0018.96 2.5z" fill="#A60000"/><g style="mix-blend-mode:multiply"><path fill-rule="evenodd" clip-rule="evenodd" d="M209.35 119.21c7.77-1 13.69-7.53 14.6-14.94.9-7.41-3.21-15.72-10.48-20.71-7.27-4.99-17.69-6.66-24.8-4.87-7.1 1.8-10.89 7.05-11.39 13.05-.5 6 2.28 12.74 8.48 18.36 6.2 5.62 15.82 10.12 23.59 9.11z" fill="#FF6D00" fill-opacity=".42"/></g><g style="mix-blend-mode:screen"><path fill-rule="evenodd" clip-rule="evenodd" d="M19.78 196a67.84 67.84 0 0016.4 17.4c9.15 6.63 20.74 11 32.1 12.75a69.98 69.98 0 0033.06-2.68c10.55-3.53 20.53-9.69 27.43-18.65a47.97 47.97 0 009.72-32.94c-1-12.2-6.78-24.82-16.85-36.64-10.08-11.82-24.45-22.84-37.55-30.43a130.8 130.8 0 00-36.3-14.48c-11.38-2.71-22.32-3.97-29.88-1.31-7.55 2.66-11.74 9.24-14.19 16.87-2.21 6.87-3.02 14.6-2.89 22.9.32-14.57 2.78-21.03 5.07-25.81 2.3-4.79 4.43-7.88 7.65-10.1 3.22-2.21 7.53-3.55 13.92-3.6 6.4-.06 14.89 1.16 23.99 3.79 9.1 2.62 18.83 6.65 28.07 11.73a162.15 162.15 0 0125.61 17.62c7.63 6.4 14.12 13.03 19.33 20.89 5.2 7.85 9.12 16.93 10.34 26.02 1.2 9.1-.28 18.2-4.09 25.86-3.8 7.66-9.93 13.87-17.06 18.8-7.13 4.93-15.27 8.58-24.2 10.04-8.93 1.46-18.66.73-27.12-1.2a79.46 79.46 0 01-21.16-8.14 66.77 66.77 0 01-12.85-9.34 59.16 59.16 0 01-8.55-9.35z" fill="#fff"/></g><path fill-rule="evenodd" clip-rule="evenodd" d="M83.68 203.8c-6.46 3.6-14.43 4.6-22.06 4.38-7.63-.23-14.92-1.7-21.47-5-6.56-3.3-12.38-8.43-17.27-14.2a76.22 76.22 0 01-11.71-18.84 77.78 77.78 0 01-5.72-21.21c-1-7.67-1.2-16.1 1.89-22.9 3.08-6.8 9.42-11.97 16.37-13.49 6.95-1.51 14.51.62 24.27 4.52 9.76 3.9 21.7 9.58 30.97 17.11 9.27 7.54 15.84 16.93 18.9 26.18a40.15 40.15 0 01-.08 26.01c-2.7 7.65-7.63 13.83-14.09 17.43zm-1.36-64c-5.82-5.9-13.17-11.06-20.64-15.1a141.46 141.46 0 00-21.08-9.07c-6.02-2.08-10.49-3.3-15.7-2.34a22.3 22.3 0 00-14.92 10.07c-3.71 6-5.17 14.91-3.74 25.55a81.33 81.33 0 0012.49 33.1c6.76 10.08 15.96 17.83 27.19 21.65 11.23 3.82 24.48 3.72 33.73-.35 9.24-4.06 14.48-12.1 16.65-20.14 2.18-8.04 1.29-16.1-1.3-23.45a53.63 53.63 0 00-12.68-19.92z" fill="#fff"/><path fill-rule="evenodd" clip-rule="evenodd" d="M31.06 211.14a65.86 65.86 0 007.07 7.62c8.21 7.55 18.32 12.77 29.88 15.99a113.35 113.35 0 0036.8 3.66 93.18 93.18 0 0035.96-9.47c12.2-5.93 25.06-15 33.87-26.3 8.8-11.29 13.55-24.8 11.45-38.73-2.1-13.94-11.04-28.3-25.25-41.52-14.2-13.22-33.67-25.3-52.4-34.58C89.74 78.5 71.77 72 58.48 68.58c-13.29-3.44-21.89-3.8-29.57-2.35-7.68 1.45-14.44 4.72-17.96 12.59-.8 1.8-1.44 3.85-1.94 6.1 2.33-7.9 6.02-12 11.26-14.74 5.23-2.73 12.01-4.09 22.25-3.14 10.24.94 23.93 4.18 40.98 10.92 17.05 6.74 37.46 16.97 54.33 28.68 16.87 11.72 30.19 24.91 37.64 38.1 7.45 13.2 9.03 26.39 6.06 37.7-2.97 11.31-10.5 20.75-20.07 29.2-9.58 8.46-21.2 15.93-34.46 20.25-13.25 4.32-28.14 5.48-40.62 4.65-12.47-.82-22.53-3.64-31.34-7.75-8.8-4.11-16.35-9.52-23.97-17.65z" fill="#fff"/><path fill-rule="evenodd" clip-rule="evenodd" d="M18.02 67.93c-.04-4.46 1.9-7.77 5.49-9.8 3.59-2.05 8.83-2.83 16.73-2.4 7.9.44 18.44 2.08 30.63 5.67 12.19 3.59 26.01 9.12 41.85 16.67a783.88 783.88 0 0148.43 25.54c14.76 8.43 26.43 15.7 36.8 23.37 10.36 7.67 19.43 15.73 26.08 22.85a104.64 104.64 0 0113.65 17.95c2.77 4.65 4.08 7.78 4.58 10.7.5 2.92.18 5.65-2.03 8.96 2.63-3 3.32-7.34 1.53-13.15-3.46-11.16-16.1-27.79-34.64-43.1-18.54-15.3-42.97-29.3-66.18-41.6-23.2-12.31-45.16-22.93-65.74-29.08-20.57-6.15-39.74-7.83-49.15-4.45-6.35 2.27-8.25 6.84-8.03 11.87zM226.34 199.72h.08c5.23.76 5.7 1.3 5.46 1.87-.23.57-1.16 1.17-3.57 1.9-2.41.74-6.66 1.4-14.46 5.79-7.8 4.38-19.67 11.97-31.27 18.23-11.6 6.26-23.1 10.88-36.66 14.81-13.56 3.94-28.65 7.72-43.04 7.13-13.38-.56-25.71-4.45-37.1-10.9 21.9 11.13 38.47 10.28 51.92 8.43a149.98 149.98 0 0035.23-9.08 288.44 288.44 0 0033.62-15.57c9.6-5.28 16.25-9.91 21.89-13a60.98 60.98 0 0113.86-5.56c3.57-.96 6.08-1.34 7.53-1.7 1.45-.34 1.84-.66 1.4-1.03-.44-.37-1.71-.78-4.89-1.32z" fill="#fff"/><path fill-rule="evenodd" clip-rule="evenodd" d="M227.8 49.26c1.1 1.61 2.1 3.22 3.01 4.8 5 8.68 7.5 16.75 7.16 25.2-.35 8.43-3.54 17.22-10.56 21.28-7.03 4.05-17.9 3.37-30.88-.68s-28.08-11.46-42.9-18.5c-14.82-7.04-29.35-13.7-44.24-19.62-14.89-5.92-30.12-11.1-42.73-13.85-12.6-2.74-22.57-3.04-29.18-2.32-6.6.71-9.85 2.44-10.7 4.51-.08.22-.14.43-.18.65.48-1.95 2.38-2.93 5.04-3.58 2.67-.64 6.11-.95 11.8-.73 5.7.22 13.63.97 22.08 2.82 8.45 1.85 17.42 4.8 26.99 8.44a604.47 604.47 0 0132.48 13.67c12.73 5.71 28.04 12.8 41.86 19 13.8 6.18 26.13 11.46 36.37 13.72 10.24 2.26 18.4 1.5 23.92-1.3 5.5-2.78 8.37-7.6 10.06-12.76a36.94 36.94 0 001.6-15.78c-.63-5.1-2.4-9.77-4.38-13.86a78.92 78.92 0 00-6.62-11.1z" fill="#fff"/><path fill-rule="evenodd" clip-rule="evenodd" d="M198.9 22.06a53.5 53.5 0 019.26 9.09c6.77 8.65 8.7 18.03 4 23.31-4.71 5.28-16.04 6.47-30.03 4.74-14-1.73-30.64-6.4-47.09-11.78-16.45-5.4-32.71-11.52-46.07-15.11-13.35-3.6-25.02-4.29-31.03-4.76-6.01-.48-7.67-.35-8.23-.43-.14-.01-.21-.04-.2-.09-.09.15.28.37 1.39.49 1.1.12 3.03.14 6.8.56 3.78.43 9.5 1.26 16.37 2.88 6.87 1.63 16.12 3.67 26.66 7.3 10.54 3.64 23.58 8.48 35.19 12.39 11.6 3.9 21.76 6.88 31.57 8.83 9.81 1.94 19.28 2.85 26.52 2.67 7.25-.17 12.3-1.44 15.68-3.32 3.39-1.88 5.13-4.38 5.85-7.24.72-2.85.42-6.06-.57-9.2-.99-3.13-2.68-6.18-4.6-9-1.93-2.83-4.09-5.43-11.47-11.33z" fill="#fff"/><path fill-rule="evenodd" clip-rule="evenodd" d="M170.8 7.64c3.3 1.41 6.25 3.03 8.56 4.89 5.46 4.38 7.41 9.92 4.9 13.45-2.52 3.52-9.45 4.69-18.15 4.77-8.7.09-19.13-1.1-28.72-3.07-9.6-1.98-18.35-4.77-27.75-7.1-9.4-2.32-19.51-3.95-25.47-5-5.97-1.04-7.85-1.27-9.3-1.64-1.1-.29-1.95-.65-1.98-1.14 0 .4.3.76.7 1.01.39.25.88.4 3.57 1 2.69.58 7.62 1.36 13.36 2.65a448.22 448.22 0 0118.4 4.5c6.07 1.64 11.62 3.38 17.83 5.1 6.22 1.71 13.1 3.42 20.44 4.64 7.33 1.23 15.11 1.97 21.43 1.57 6.31-.4 11.16-1.95 13.98-3.73 2.81-1.78 3.6-3.8 3.89-5.55a8.33 8.33 0 00-.74-5.05c-.8-1.78-2.22-3.47-4.4-5.37-2.19-1.9-5.2-3.66-10.55-5.93z" fill="#fff"/><path fill-rule="evenodd" clip-rule="evenodd" d="M143.26 1.3c.81.14 1.61.3 2.38.49 5.31 1.22 9.55 3.23 11 5.1 1.45 1.86.11 3.59-3.92 4.84-4.04 1.25-10.76 2.03-17.43 1.95a80.6 80.6 0 01-18.96-2.5c-5.7-1.49-10.5-3.52-11.56-5.28-.83-1.37.6-2.58 3.35-3.51-4.3 1.45-4.64 2.83-3.6 4.38 1.06 1.55 3.5 3.27 8.66 4.89 5.15 1.61 13 3.12 20.4 3.41 7.4.3 14.33-.6 18.44-1.65 4.11-1.05 5.39-2.23 5.98-3.42.6-1.2.52-2.39-.58-3.5-1.1-1.11-3.22-2.13-5.57-3a45.48 45.48 0 00-8.6-2.2zM82.7 241.68a108.94 108.94 0 0060.9-5.09c22.94-8.75 47.67-26.56 64.69-45.24 17.02-18.68 26.32-38.23 31.4-56.48 5.1-18.25 5.99-35.2 3.7-49.21-2.28-14.02-8.2-25.12-13.74-33.6-5.54-8.5-12.16-16.11-23.43-23.22 10.19 5.79 18.08 14 24.17 22.74a91.3 91.3 0 0115.36 41.5c1.56 14.67-.41 29.03-5 44.52-4.57 15.5-11.75 32.13-24.75 47.97-12.99 15.83-31.78 30.85-48.93 41.06-17.15 10.2-32.65 15.58-47.86 17.61-15.22 2.03-30.15.7-42.88-2.89a79.14 79.14 0 01-31.92-17.42c9.36 7.94 21.5 14.38 38.3 17.75z" fill="#fff"/></g><defs><linearGradient id="paint0_linear" x1="-17.86" y1="25.47" x2="32.78" y2="280.29" gradientUnits="userSpaceOnUse"><stop offset="0" stop-color="#B00000"/><stop offset="1" stop-color="#005CCD"/></linearGradient><linearGradient id="paint1_linear" x1="20.55" y1="21.55" x2="20.55" y2="244.61" gradientUnits="userSpaceOnUse"><stop stop-color="#FFCC35" stop-opacity=".6"/><stop offset="1" stop-color="#24E9FF" stop-opacity=".6"/></linearGradient><linearGradient id="paint2_linear" x1="247.89" y1="30.72" x2="79.06" y2="48.99" gradientUnits="userSpaceOnUse"><stop stop-color="#F9FF53" stop-opacity=".6"/><stop offset="1" stop-color="#B8FF53" stop-opacity=".6"/></linearGradient><linearGradient id="paint3_linear" x1="77.33" y1="79.08" x2="-14.62" y2="164.38" gradientUnits="userSpaceOnUse"><stop stop-color="#33B1FF" stop-opacity=".63"/><stop offset="1" stop-color="#338BFF" stop-opacity=".64"/></linearGradient><linearGradient id="paint4_linear" x1="50.29" y1="102.63" x2="-5" y2="160.02" gradientUnits="userSpaceOnUse"><stop stop-color="#0A76FF" stop-opacity=".7"/><stop offset="1" stop-color="#0A4FFF" stop-opacity=".7"/></linearGradient><linearGradient id="paint6_linear" x1="26.67" y1="28.67" x2="39.98" y2="91.94" gradientUnits="userSpaceOnUse"><stop stop-color="#FF0400" stop-opacity=".7"/><stop offset="1" stop-color="#F80" stop-opacity=".7"/></linearGradient><linearGradient id="paint7_linear" x1="52.04" y1="9.15" x2="58.69" y2="49.98" gradientUnits="userSpaceOnUse"><stop stop-color="#BC0000" stop-opacity=".8"/><stop offset="1" stop-color="#EC1A00" stop-opacity=".8"/></linearGradient><radialGradient id="paint5_radial" cx="0" cy="0" r="1" gradientUnits="userSpaceOnUse" gradientTransform="matrix(85.7416 0 0 15.7664 141.28 35.83)"><stop stop-color="#FF3000" stop-opacity=".6"/><stop offset="1" stop-color="#FFB900" stop-opacity=".6"/></radialGradient><clipPath id="clip0"><path fill="#fff" d="M0 0h256v256H0z"/></clipPath></defs></svg>
